<svg width="8" height="17" viewBox="0 0 8 17" fill="none" xmlns="http://www.w3.org/2000/svg">
<path d="M3.83985 16.1267C1.76666 16.1267 0.085935 14.4915 0.0859481 12.4746L0.0859353 2.614C0.0859352 1.20403 1.26439 0.0575332 2.71366 0.0575457C4.16292 0.057533 5.34139 1.20403 5.3414 2.61399L5.34141 12.4746C5.34138 13.2776 4.66521 13.9354 3.83983 13.9354C3.01446 13.9354 2.33826 13.2776 2.33829 12.4746L2.33826 4.07483C2.33759 4.02646 2.3468 3.97843 2.36536 3.93354C2.38393 3.88866 2.41147 3.84781 2.44639 3.81337C2.48132 3.77892 2.52292 3.75158 2.5688 3.73291C2.61468 3.71425 2.66392 3.70463 2.71365 3.70463C2.76338 3.70463 2.81261 3.71424 2.85849 3.73291C2.90437 3.75157 2.94599 3.77892 2.98091 3.81336C3.01584 3.8478 3.04338 3.88865 3.06194 3.93354C3.08051 3.97842 3.08972 4.02645 3.08904 4.07482L3.08907 12.4746C3.08907 12.8856 3.4174 13.205 3.83985 13.205C4.26227 13.205 4.59062 12.8856 4.59062 12.4746L4.59062 2.614C4.59063 1.59605 3.76 0.787951 2.71366 0.787951C1.66735 0.787951 0.836719 1.59605 0.836732 2.614L0.836737 12.4746C0.836711 14.0995 2.16961 15.3963 3.83985 15.3963C5.51007 15.3963 6.84294 14.0995 6.84296 12.4746L6.84294 4.07484C6.84227 4.02646 6.85149 3.97842 6.87005 3.93354C6.88862 3.88865 6.91616 3.8478 6.95108 3.81336C6.98601 3.77892 7.02761 3.75157 7.07349 3.73291C7.11937 3.71424 7.1686 3.70463 7.21833 3.70463C7.26806 3.70463 7.31729 3.71424 7.36317 3.73291C7.40905 3.75158 7.45067 3.77892 7.48559 3.81336C7.52052 3.8478 7.54807 3.88865 7.56663 3.93353C7.5852 3.97841 7.5944 4.02645 7.59373 4.07482L7.59373 12.4746C7.59375 14.4916 5.91299 16.1267 3.83985 16.1267Z" fill="#494E56"/>
</svg>
