<svg width="27" height="22" viewBox="0 0 27 22" fill="none" xmlns="http://www.w3.org/2000/svg">
<path d="M26.4762 14.6667C26.1866 14.6667 25.9524 14.9008 25.9524 15.1905V20.9524H1.85719V15.1905C1.85719 14.9008 1.62252 14.6667 1.33338 14.6667C1.04424 14.6667 0.80957 14.9008 0.80957 15.1905V21.4762C0.80957 21.7659 1.04424 22 1.33338 22H26.4762C26.7659 22 27 21.7659 27 21.4762V15.1905C27 14.9008 26.7659 14.6667 26.4762 14.6667Z" fill="#494E56"/>
<path d="M13.5343 15.5608C13.6364 15.663 13.7705 15.7143 13.9046 15.7143C14.0387 15.7143 14.1728 15.663 14.2749 15.5608L19.513 10.3227C19.7179 10.1179 19.7179 9.78686 19.513 9.58205C19.3082 9.37724 18.9772 9.37724 18.7724 9.58205L14.4284 13.926V0.52381C14.4284 0.234667 14.1938 0 13.9046 0C13.6155 0 13.3808 0.234667 13.3808 0.52381V13.926L9.03685 9.58205C8.83204 9.37724 8.50099 9.37724 8.29619 9.58205C8.09138 9.78686 8.09138 10.1179 8.29619 10.3227L13.5343 15.5608Z" fill="#494E56"/>
</svg>
