<svg width="60" height="51" viewBox="0 0 60 51" fill="none" xmlns="http://www.w3.org/2000/svg">
<path d="M58.8 33.6003C58.1364 33.6003 57.6 34.1367 57.6 34.8003V48.0003H2.4V34.8003C2.4 34.1367 1.8624 33.6003 1.2 33.6003C0.5376 33.6003 0 34.1367 0 34.8003V49.2003C0 49.8639 0.5376 50.4003 1.2 50.4003H58.8C59.4636 50.4003 60 49.8639 60 49.2003V34.8003C60 34.1367 59.4636 33.6003 58.8 33.6003Z" fill="#C4C4C4"/>
<path d="M18.8483 14.0487L28.7999 4.0971V34.8003C28.7999 35.4639 29.3375 36.0003 29.9999 36.0003C30.6623 36.0003 31.1999 35.4639 31.1999 34.8003V4.0971L41.1515 14.0487C41.3855 14.2827 41.6927 14.4003 41.9999 14.4003C42.3071 14.4003 42.6143 14.2827 42.8483 14.0487C43.3175 13.5795 43.3175 12.8211 42.8483 12.3519L30.8483 0.3519C30.3791 -0.1173 29.6207 -0.1173 29.1515 0.3519L17.1515 12.3519C16.6823 12.8211 16.6823 13.5795 17.1515 14.0487C17.6207 14.5179 18.3791 14.5179 18.8483 14.0487Z" fill="#C4C4C4"/>
</svg>
