<svg width="35" height="30" viewBox="0 0 35 30" fill="none" xmlns="http://www.w3.org/2000/svg">
<path d="M34.2603 0.52446C34.0139 0.28647 33.5695 0 32.8787 0C32.575 0 32.2494 0.057294 31.9106 0.171882L2.12109 10.1498C0.405 10.7228 0.0617827 11.7276 0.00898001 12.2697C-0.0438227 12.8162 0.101385 13.8651 1.67227 14.7642L10.9083 20.0353L10.9171 27.1C10.9171 29.0921 11.7796 29.7091 12.2944 29.8986C12.4792 29.9692 12.6772 30.0044 12.884 30.0044C13.6365 30.0044 14.3977 29.5549 15.1546 28.669L18.7187 24.4998L24.439 27.7655C25.1343 28.1622 25.9527 28.2327 26.6347 27.9506C27.3256 27.6686 27.8536 27.056 28.0736 26.2759L34.7224 2.86029C35.092 1.56457 34.5947 0.841781 34.2603 0.52446ZM11.4584 18.1578L2.61391 13.1071C2.04628 12.781 1.90988 12.5209 1.90548 12.4636C1.92308 12.3975 2.10789 12.1684 2.72832 11.9612L30.6213 2.61789L11.4584 18.1578ZM13.7025 27.4262C13.3373 27.8537 13.0864 28.0079 12.9676 28.0652C12.9104 27.9418 12.818 27.6642 12.818 27.1L12.8136 21.1283L17.0291 23.5346L13.7025 27.4262ZM26.2387 25.7558C26.1771 25.9718 26.0627 26.1216 25.9131 26.1833C25.7635 26.245 25.5743 26.2142 25.3807 26.104L13.2361 19.1714L32.5618 3.49934L26.2387 25.7558Z" fill="white"/>
</svg>
