<svg width="139" height="40" viewBox="0 0 139 40" fill="none" xmlns="http://www.w3.org/2000/svg">
<g clip-path="url(#clip0)">
<path d="M61.9687 21.8833H58.063L57.1659 24.8054H54.6057L58.8292 11.609H61.3894L65.5942 24.8054H62.9031L61.9687 21.8833ZM58.661 19.8096H61.4641L60.1373 15.3982H59.9691L58.661 19.8096Z" fill="white"/>
<path d="M69.4438 11.609H78.0216V13.9089H72.0041V16.9818H77.5544V19.2817H72.0041V22.5054H78.115V24.8054H69.4438V11.609Z" fill="white"/>
<path d="M82.9365 11.741C83.2243 11.6919 83.5308 11.6429 83.8634 11.5977C84.1923 11.5524 84.525 11.5185 84.8539 11.4959C85.1828 11.4695 85.5042 11.4506 85.8182 11.4393C86.1284 11.428 86.4162 11.4205 86.6778 11.4205C87.287 11.4205 87.8888 11.4808 88.4831 11.5977C89.0736 11.7183 89.6043 11.9219 90.0715 12.2085C90.5387 12.4988 90.9125 12.8872 91.1928 13.3773C91.4731 13.8674 91.6114 14.4783 91.6114 15.2059C91.6114 15.7451 91.5591 16.2126 91.4544 16.6123C91.3498 17.0082 91.204 17.3551 91.0171 17.6567C90.8303 17.9583 90.6023 18.2185 90.3332 18.4409C90.0641 18.6596 89.7763 18.8594 89.4623 19.0366L92.6205 24.8053H89.6679L87.0329 19.6399H85.5005V24.8053H82.9403V11.741H82.9365ZM86.861 13.7204C86.5993 13.7204 86.3414 13.7279 86.0873 13.7393C85.8331 13.7506 85.635 13.777 85.4968 13.8147V17.6416H86.5059C87.216 17.6416 87.7954 17.4795 88.2439 17.1515C88.6924 16.8234 88.9166 16.2843 88.9166 15.5302C88.9166 14.9646 88.741 14.5197 88.3934 14.1992C88.0458 13.8788 87.5337 13.7204 86.861 13.7204Z" fill="white"/>
<path d="M96.0928 18.2072C96.0928 17.1402 96.1937 16.1787 96.3918 15.3228C96.5899 14.467 96.8963 13.7506 97.3075 13.1662C97.7186 12.5818 98.2344 12.1331 98.8474 11.8164C99.4641 11.5034 100.189 11.3451 101.026 11.3451C101.923 11.3451 102.682 11.5148 103.306 11.8541C103.93 12.1934 104.439 12.6647 104.831 13.268C105.224 13.8712 105.511 14.5952 105.691 15.436C105.87 16.2768 105.964 17.2005 105.964 18.2072C105.964 20.3563 105.556 22.0379 104.738 23.252C103.923 24.466 102.686 25.0731 101.03 25.0731C100.133 25.0731 99.3706 24.9034 98.7427 24.5641C98.1148 24.2247 97.6027 23.7534 97.2103 23.1502C96.8179 22.5469 96.5338 21.823 96.3581 20.9822C96.1787 20.1339 96.0928 19.2101 96.0928 18.2072ZM98.7838 18.2072C98.7838 18.8482 98.8137 19.4439 98.866 19.9981C98.9221 20.5524 99.0268 21.0312 99.1837 21.4422C99.3407 21.8494 99.565 22.1736 99.8565 22.4149C100.148 22.6562 100.54 22.7731 101.023 22.7731C101.46 22.7731 101.819 22.6826 102.107 22.5017C102.394 22.3207 102.622 22.0417 102.798 21.6646C102.974 21.2876 103.093 20.8125 103.161 20.2394C103.228 19.6663 103.265 18.9914 103.265 18.211C103.265 17.5964 103.243 17.012 103.202 16.4577C103.157 15.9035 103.06 15.4209 102.903 15.0061C102.746 14.5914 102.518 14.2634 102.219 14.0183C101.92 13.7732 101.52 13.6526 101.023 13.6526C100.152 13.6526 99.5575 14.0371 99.2473 14.8025C98.9408 15.5604 98.7838 16.699 98.7838 18.2072Z" fill="white"/>
<path d="M122.368 21.8833H118.462L117.565 24.8054H115.005L119.228 11.609H121.788L125.993 24.8054H123.302L122.368 21.8833ZM119.06 19.8096H121.863L120.536 15.3982H120.368L119.06 19.8096Z" fill="white"/>
<path d="M136.44 17.7736L136.533 15.7187H136.421L134.328 19.1686H133.879L131.693 15.7187H131.6L131.712 17.5662V24.8054H129.282V11.609H131.88L134.122 15.2663H134.197L136.421 11.609H139V24.8054H136.44V17.7736Z" fill="white"/>
<path d="M20.8594 22.4602C20.8594 22.4564 20.8594 22.4488 20.8557 22.4451C20.8519 22.43 20.8519 22.4149 20.8482 22.3998C20.8482 22.3961 20.8482 22.3885 20.8445 22.3847C20.8407 22.3697 20.837 22.3508 20.8333 22.3357C20.8295 22.3282 20.8295 22.3206 20.8258 22.3131C20.822 22.3018 20.8183 22.2943 20.8146 22.2829C20.8108 22.2754 20.8071 22.2679 20.8034 22.2603C20.7959 22.2452 20.7921 22.2302 20.7847 22.2188C20.7809 22.2113 20.7772 22.2038 20.7735 22.1962C20.7697 22.1887 20.7622 22.1774 20.7585 22.1698C20.7548 22.1623 20.751 22.1547 20.7473 22.151C20.7398 22.1397 20.7286 22.1246 20.7211 22.1133C20.7174 22.1057 20.7099 22.0982 20.7024 22.0944C20.695 22.0869 20.6912 22.0793 20.6838 22.0718C20.6763 22.0643 20.6725 22.0605 20.6651 22.053C20.6576 22.0454 20.6539 22.0416 20.6464 22.0341C20.6314 22.0228 20.6165 22.0115 20.6015 21.9964C20.5978 21.9926 20.5941 21.9889 20.5903 21.9851C20.5791 21.9775 20.5716 21.97 20.5604 21.9662C20.5567 21.9625 20.5529 21.9625 20.5492 21.9587C20.538 21.9511 20.523 21.9436 20.5118 21.9361L11.2277 17.0949C10.7269 16.8347 10.1326 16.8347 9.63178 17.0949L0.355144 21.9361C0.343931 21.9436 0.328981 21.9511 0.317768 21.9587C0.314031 21.9625 0.310293 21.9625 0.306556 21.9662C0.295343 21.9738 0.287868 21.9775 0.276655 21.9851C0.272918 21.9889 0.26918 21.9926 0.265442 21.9926C0.250492 22.0039 0.235542 22.0152 0.220592 22.0303C0.213117 22.0341 0.205641 22.0416 0.201904 22.0492C0.194429 22.0529 0.190691 22.0605 0.183216 22.068C0.175741 22.0756 0.172003 22.0831 0.164528 22.0907C0.157053 22.0982 0.153316 22.1057 0.14584 22.1095C0.138365 22.1208 0.127153 22.1321 0.119677 22.1472C0.11594 22.1548 0.112202 22.1623 0.108465 22.1661C0.104727 22.1736 0.0972521 22.1849 0.0935146 22.1925C0.089777 22.2 0.0860394 22.2075 0.0823019 22.2151C0.0673516 22.2302 0.0598765 22.2452 0.0524014 22.2603C0.0486638 22.2679 0.0449262 22.2754 0.0411887 22.2829C0.0374511 22.2943 0.0337135 22.3018 0.029976 22.3131C0.0262384 22.3206 0.0262384 22.3282 0.0225008 22.3357C0.0187633 22.3508 0.0112881 22.3697 0.0112881 22.3847C0.0112881 22.3885 0.00755058 22.3961 0.00755058 22.3998C0.00381302 22.4149 0.00381302 22.43 7.54546e-05 22.4451C7.54546e-05 22.4488 7.54546e-05 22.4564 -0.00366211 22.4602C7.54546e-05 22.4828 7.54546e-05 22.5016 7.54546e-05 22.5205V33.5752C7.54546e-05 34.2313 0.358882 34.827 0.938204 35.1286L10.1177 39.9208C10.1214 39.9246 10.1251 39.9246 10.1289 39.9246H10.1326C10.1438 39.9321 10.155 39.9359 10.17 39.9434C10.1775 39.9472 10.1887 39.951 10.1962 39.9547C10.2036 39.9585 10.2148 39.9623 10.2223 39.966C10.2335 39.9698 10.241 39.9736 10.2522 39.9736C10.2672 39.9773 10.2784 39.9811 10.2933 39.9849C10.2971 39.9849 10.3045 39.9887 10.312 39.9887C10.3307 39.9924 10.3457 39.9962 10.3643 39.9962C10.3681 39.9962 10.3718 39.9962 10.3756 39.9962C10.3942 40 10.4167 40 10.4354 40C10.454 40 10.4765 40 10.4952 39.9962C10.4989 39.9962 10.5026 39.9962 10.5064 39.9962C10.5251 39.9924 10.54 39.9924 10.5587 39.9887C10.5662 39.9887 10.5699 39.9849 10.5774 39.9849C10.5923 39.9811 10.6035 39.9773 10.6185 39.9736C10.6297 39.9698 10.6372 39.9698 10.6484 39.966C10.6559 39.9623 10.6671 39.9585 10.6746 39.9547C10.682 39.951 10.6932 39.9472 10.7007 39.9434C10.7119 39.9396 10.7231 39.9321 10.7381 39.9246H10.7418C10.7456 39.9208 10.7493 39.9208 10.753 39.9208L19.9325 35.1286C20.5118 34.827 20.8706 34.2313 20.8706 33.5752V22.5205C20.8632 22.5016 20.8632 22.4828 20.8594 22.4602ZM9.78502 38.2731L1.53248 33.9711C1.38671 33.8957 1.29327 33.7449 1.29327 33.579V23.595L9.78128 28.0215V38.2731H9.78502ZM10.4316 26.8903L2.05947 22.5205L10.2298 18.2562C10.3569 18.1883 10.5064 18.1921 10.6334 18.2562L18.8038 22.5205L10.4316 26.8903ZM19.5662 33.579C19.5662 33.7449 19.4765 33.8957 19.327 33.9711L11.0782 38.2769V28.0252L19.5662 23.5988V33.579Z" fill="white"/>
<path d="M40.6348 22.4602C40.6348 22.4564 40.6348 22.4488 40.6311 22.4451C40.6273 22.43 40.6273 22.4149 40.6236 22.3998C40.6236 22.3961 40.6236 22.3885 40.6199 22.3847C40.6161 22.3697 40.6124 22.3508 40.6087 22.3357C40.6049 22.3282 40.6049 22.3206 40.6012 22.3131C40.5974 22.3018 40.5937 22.2943 40.59 22.2829C40.5862 22.2754 40.5825 22.2679 40.5787 22.2603C40.5713 22.2452 40.5675 22.2302 40.5601 22.2188C40.5563 22.2113 40.5526 22.2038 40.5488 22.1962C40.5451 22.1887 40.5376 22.1774 40.5339 22.1698C40.5302 22.1623 40.5264 22.1547 40.5227 22.151C40.5152 22.1397 40.504 22.1246 40.4965 22.1133C40.4928 22.1057 40.4853 22.0982 40.4778 22.0944C40.4704 22.0869 40.4666 22.0793 40.4591 22.0718C40.4517 22.0643 40.4479 22.0605 40.4405 22.053C40.433 22.0454 40.4292 22.0416 40.4218 22.0341C40.4068 22.0228 40.3919 22.0115 40.3769 21.9964C40.3732 21.9926 40.3694 21.9889 40.3657 21.9851C40.3545 21.9775 40.347 21.97 40.3358 21.9662C40.3321 21.9625 40.3283 21.9625 40.3246 21.9587C40.3134 21.9511 40.2984 21.9436 40.2872 21.9361L31.0031 17.0949C30.5023 16.8347 29.908 16.8347 29.4072 17.0949L20.1305 21.9361C20.1193 21.9436 20.1044 21.9511 20.0932 21.9587C20.0894 21.9625 20.0857 21.9625 20.0819 21.9662C20.0707 21.9738 20.0633 21.9775 20.052 21.9851C20.0483 21.9889 20.0446 21.9926 20.0408 21.9926C20.0259 22.0039 20.0109 22.0152 19.996 22.0303C19.9885 22.0341 19.981 22.0416 19.9773 22.0492C19.9698 22.0529 19.9661 22.0605 19.9586 22.068C19.9511 22.0756 19.9474 22.0831 19.9399 22.0907C19.9324 22.0982 19.9287 22.1057 19.9212 22.1095C19.9138 22.1208 19.9025 22.1321 19.8951 22.1472C19.8913 22.1548 19.8876 22.1623 19.8839 22.1661C19.8801 22.1736 19.8726 22.1849 19.8689 22.1925C19.8652 22.2 19.8614 22.2075 19.8577 22.2151C19.8502 22.2302 19.8427 22.2452 19.8353 22.2565C19.8315 22.2641 19.8278 22.2716 19.8241 22.2792C19.8166 22.2943 19.8091 22.3018 19.8091 22.3131C19.8054 22.3206 19.8054 22.3282 19.8016 22.3357C19.7979 22.3508 19.7904 22.3697 19.7904 22.3847C19.7904 22.3885 19.7867 22.3961 19.7867 22.3998C19.7829 22.4149 19.7829 22.43 19.7792 22.4451C19.7792 22.4488 19.7792 22.4564 19.7755 22.4602C19.7755 22.479 19.7717 22.4979 19.7717 22.5205V33.5752C19.7717 34.2313 20.1305 34.827 20.7099 35.1286L29.8893 39.9208C29.8931 39.9246 29.8968 39.9246 29.9005 39.9246H29.9043C29.9155 39.9321 29.9267 39.9359 29.9416 39.9434C29.9491 39.9472 29.9603 39.951 29.9678 39.9547C29.9753 39.9585 29.9865 39.9623 29.994 39.966C30.0052 39.9698 30.0127 39.9736 30.0239 39.9736C30.0388 39.9773 30.05 39.9811 30.065 39.9849C30.0687 39.9849 30.0762 39.9887 30.0837 39.9887C30.1024 39.9924 30.1173 39.9962 30.136 39.9962C30.1397 39.9962 30.1435 39.9962 30.1472 39.9962C30.1659 40 30.1883 40 30.207 40C30.2257 40 30.2481 40 30.2668 39.9962C30.2705 39.9962 30.2743 39.9962 30.278 39.9962C30.2967 39.9924 30.3117 39.9924 30.3303 39.9887C30.3378 39.9887 30.3416 39.9849 30.349 39.9849C30.364 39.9811 30.3752 39.9773 30.3901 39.9736C30.4014 39.9698 30.4088 39.9698 30.42 39.966C30.4275 39.9623 30.4387 39.9585 30.4462 39.9547C30.4537 39.951 30.4649 39.9472 30.4724 39.9434C30.4836 39.9396 30.4948 39.9321 30.5097 39.9246H30.5135C30.5172 39.9208 30.521 39.9208 30.5247 39.9208L39.7042 35.1286C40.2835 34.827 40.6423 34.2313 40.6423 33.5752V22.5205C40.6385 22.5016 40.6348 22.4828 40.6348 22.4602ZM29.5567 38.2731L21.3079 33.9711C21.1621 33.8957 21.0687 33.7449 21.0687 33.579V23.595L29.5567 28.0215V38.2731ZM30.207 26.8903L21.8349 22.5205L30.0052 18.2562C30.1323 18.1883 30.2818 18.1921 30.4088 18.2562L38.5792 22.5205L30.207 26.8903ZM39.3416 33.579C39.3416 33.7449 39.2519 33.8957 39.1024 33.9711L30.8536 38.2769V28.0252L39.3416 23.5988V33.579Z" fill="white"/>
<path d="M30.7453 5.56129C30.7453 5.55752 30.7453 5.54998 30.7416 5.54621C30.7379 5.53113 30.7379 5.51604 30.7341 5.50096C30.7341 5.49719 30.7341 5.48965 30.7304 5.48588C30.7266 5.4708 30.7229 5.45195 30.7192 5.43687C30.7154 5.42933 30.7154 5.42178 30.7117 5.41424C30.708 5.40293 30.7042 5.39539 30.7005 5.38408C30.6967 5.37654 30.693 5.369 30.6893 5.36146C30.6818 5.34638 30.6781 5.3313 30.6706 5.31998C30.6668 5.31244 30.6631 5.3049 30.6594 5.29736C30.6556 5.28605 30.6519 5.27851 30.6482 5.27097C30.6444 5.26343 30.6407 5.25589 30.6369 5.25212C30.6295 5.24081 30.6183 5.22573 30.6108 5.21441C30.607 5.20687 30.5996 5.19933 30.5921 5.19556C30.5846 5.18802 30.5809 5.18048 30.5734 5.17294C30.5659 5.1654 30.5622 5.16163 30.5547 5.15409C30.5472 5.14655 30.5435 5.14278 30.536 5.13524C30.5211 5.12392 30.5061 5.11261 30.4912 5.09753C30.4874 5.09376 30.4837 5.08999 30.48 5.08622C30.4688 5.07868 30.4613 5.07114 30.4501 5.06737C30.4463 5.0636 30.4426 5.0636 30.4389 5.05983C30.4276 5.05229 30.4127 5.04475 30.4015 5.03721L21.1136 0.196033C20.6128 -0.0641236 20.0185 -0.0641236 19.5177 0.196033L10.2411 5.03721C10.2298 5.04475 10.2149 5.05229 10.2037 5.05983C10.1999 5.0636 10.1962 5.0636 10.1925 5.06737C10.1813 5.07491 10.1738 5.07868 10.1626 5.08622C10.1588 5.08999 10.1551 5.09376 10.1514 5.09376C10.1364 5.10507 10.1215 5.11638 10.1065 5.13147C10.099 5.13524 10.0916 5.14278 10.0878 5.15032C10.0803 5.15409 10.0766 5.16163 10.0691 5.16917C10.0617 5.17671 10.0579 5.18425 10.0504 5.19179C10.043 5.19933 10.0392 5.20687 10.0318 5.21064C10.0243 5.22195 10.0131 5.23327 10.0056 5.24835C10.0019 5.25589 9.99811 5.26343 9.99438 5.2672C9.99064 5.27474 9.98316 5.28605 9.97943 5.29359C9.97569 5.30113 9.97195 5.30867 9.96821 5.31621C9.96074 5.3313 9.95326 5.34638 9.94579 5.35769C9.94205 5.36523 9.93831 5.37277 9.93457 5.38031C9.93084 5.39162 9.9271 5.39916 9.92336 5.41047C9.91962 5.41802 9.91962 5.42556 9.91589 5.4331C9.91215 5.44818 9.90467 5.46703 9.90467 5.48211C9.90467 5.48588 9.90094 5.49342 9.90094 5.49719C9.8972 5.51227 9.8972 5.52736 9.89346 5.54244C9.89346 5.54621 9.89346 5.55375 9.88972 5.55752C9.88972 5.57637 9.88599 5.59522 9.88599 5.61785V16.6726C9.88599 17.3287 10.2448 17.9244 10.8241 18.226L20.0036 23.0182C20.0073 23.0219 20.011 23.0219 20.0148 23.0219H20.0185C20.0297 23.0295 20.0409 23.0332 20.0559 23.0408C20.0634 23.0446 20.0746 23.0483 20.0821 23.0521C20.0895 23.0559 20.1007 23.0596 20.1082 23.0634C20.1194 23.0672 20.1269 23.071 20.1381 23.071C20.1531 23.0747 20.1643 23.0785 20.1792 23.0823C20.183 23.0823 20.1904 23.086 20.1979 23.086C20.2166 23.0898 20.2316 23.0936 20.2503 23.0936C20.254 23.0936 20.2577 23.0936 20.2615 23.0936C20.2802 23.0973 20.3026 23.0973 20.3213 23.0973C20.34 23.0973 20.3624 23.0973 20.3811 23.0936C20.3848 23.0936 20.3885 23.0936 20.3923 23.0936C20.411 23.0898 20.4259 23.0898 20.4446 23.086C20.4521 23.086 20.4558 23.0823 20.4633 23.0823C20.4782 23.0785 20.4895 23.0747 20.5044 23.071C20.5156 23.0672 20.5231 23.0672 20.5343 23.0634C20.5418 23.0596 20.553 23.0559 20.5605 23.0521C20.5679 23.0483 20.5792 23.0446 20.5866 23.0408C20.5978 23.037 20.6091 23.0295 20.624 23.0219H20.6277C20.6315 23.0182 20.6352 23.0182 20.639 23.0182L29.8184 18.226C30.3977 17.9244 30.7565 17.3287 30.7565 16.6726V5.62162C30.7491 5.59899 30.7491 5.58014 30.7453 5.56129ZM19.6709 21.3743L11.4221 17.0685C11.2764 16.9931 11.1829 16.8423 11.1829 16.6764V6.69617L19.6709 11.1226V21.3743ZM20.3175 9.98772L11.9454 5.61785L20.1157 1.35731C20.2428 1.28944 20.3923 1.29321 20.5194 1.35731L28.6897 5.62162L20.3175 9.98772ZM29.4521 16.6764C29.4521 16.8423 29.3624 16.9931 29.2129 17.0685L20.9679 21.3743V11.1226L29.4521 6.69617V16.6764Z" fill="white"/>
</g>
<defs>
<clipPath id="clip0">
<rect width="139" height="40" fill="white"/>
</clipPath>
</defs>
</svg>
