<svg width="155" height="45" viewBox="0 0 155 45" fill="none" xmlns="http://www.w3.org/2000/svg">
<path d="M68.0063 16.3625V18.3918H63.5376V30.5962H61.1467V18.3918H56.6657V16.3625H68.0063Z" fill="white"/>
<path d="M71.84 20.2094H73.6044L74.0001 21.4834C74.3093 20.9937 74.635 20.6244 74.9689 20.3754C75.3028 20.1264 75.6697 20.002 76.0696 20.002C76.1932 20.002 76.387 20.0269 76.6591 20.0766C76.9311 20.1264 77.2527 20.2592 77.6319 20.4709V22.5541C77.3805 22.4586 77.1661 22.3839 76.9888 22.33C76.8116 22.276 76.659 22.2345 76.5436 22.2138C76.4241 22.1889 76.3334 22.1764 76.2716 22.1723C76.2056 22.1681 76.1602 22.1681 76.1355 22.1681C75.8387 22.1681 75.5708 22.2304 75.3358 22.3549C75.1008 22.4794 74.8988 22.6453 74.738 22.8528C74.5773 23.0603 74.4495 23.301 74.3629 23.5707C74.2763 23.8446 74.231 24.1268 74.231 24.4173V30.5921H71.8483V20.2094H71.84Z" fill="white"/>
<path d="M89.2487 30.5963H86.8577V29.4219C86.6021 29.6875 86.3507 29.9075 86.1075 30.0859C85.8642 30.2643 85.6251 30.4054 85.386 30.5092C85.1511 30.6129 84.9079 30.6876 84.6646 30.7333C84.4214 30.7789 84.17 30.7997 83.9144 30.7997C83.395 30.7997 82.9291 30.7208 82.521 30.5631C82.1129 30.4054 81.7625 30.1855 81.4698 29.895C81.1813 29.6045 80.9587 29.2601 80.8061 28.8534C80.6536 28.4467 80.5794 27.9944 80.5794 27.4923V20.2095H82.9704V27.3222C82.9704 27.5877 83.0075 27.8118 83.0775 28.0027C83.1476 28.1895 83.2466 28.343 83.3702 28.4633C83.4939 28.5837 83.6423 28.6667 83.8113 28.7165C83.9803 28.7663 84.1617 28.7912 84.3596 28.7912C84.6688 28.7912 84.9779 28.7165 85.2789 28.5671C85.5798 28.4177 85.8477 28.2185 86.0786 27.9695C86.3136 27.7205 86.4991 27.4301 86.6392 27.1022C86.7794 26.7702 86.8536 26.4217 86.8536 26.0565V20.2095H89.2446V30.5963H89.2487Z" fill="white"/>
<path d="M103.92 16.3625V18.3918H96.5493V22.2386H102.947V24.2803H96.5493V30.5962H94.1584V16.3625H103.92Z" fill="white"/>
<path d="M121.015 23.442C121.015 24.5458 120.871 25.5542 120.578 26.4796C120.29 27.4009 119.865 28.1935 119.305 28.8574C118.748 29.5214 118.064 30.036 117.252 30.4053C116.44 30.7746 115.512 30.9572 114.465 30.9572C113.418 30.9572 112.49 30.7705 111.682 30.4011C110.874 30.0318 110.194 29.5131 109.634 28.8491C109.077 28.1852 108.653 27.3926 108.368 26.4713C108.08 25.5501 107.935 24.5375 107.935 23.4337C107.935 22.3299 108.08 21.3256 108.368 20.4127C108.657 19.4997 109.077 18.7196 109.634 18.0639C110.19 17.4082 110.874 16.902 111.682 16.5451C112.49 16.1882 113.418 16.0056 114.465 16.0056C115.512 16.0056 116.444 16.1882 117.252 16.5534C118.06 16.9186 118.748 17.4248 119.305 18.0805C119.861 18.7362 120.286 19.5163 120.578 20.4293C120.867 21.3339 121.015 22.3423 121.015 23.442ZM118.62 23.4337C118.62 22.5705 118.513 21.8028 118.295 21.1264C118.08 20.4542 117.784 19.8856 117.408 19.4292C117.033 18.9727 116.592 18.62 116.089 18.3793C115.586 18.1386 115.042 18.0182 114.461 18.0182C113.871 18.0182 113.327 18.1386 112.824 18.3793C112.321 18.62 111.884 18.9727 111.518 19.4292C111.151 19.8856 110.858 20.4542 110.648 21.1264C110.433 21.7987 110.33 22.5705 110.33 23.4337C110.33 24.2968 110.438 25.0687 110.648 25.7493C110.862 26.4298 111.151 27.0066 111.518 27.4797C111.884 27.9528 112.321 28.3138 112.824 28.5628C113.327 28.8118 113.876 28.9363 114.461 28.9363C115.042 28.9363 115.586 28.8118 116.089 28.5628C116.592 28.3138 117.033 27.9528 117.408 27.4797C117.784 27.0066 118.08 26.4298 118.295 25.7493C118.513 25.0687 118.62 24.2968 118.62 23.4337Z" fill="white"/>
<path d="M136.264 20.5328C136.264 21.1594 136.103 21.7445 135.778 22.2923C135.452 22.8401 134.961 23.3132 134.306 23.7157C134.615 23.8236 134.883 23.9813 135.106 24.1846C135.328 24.3879 135.51 24.6203 135.654 24.8735C135.794 25.1266 135.901 25.4005 135.967 25.691C136.033 25.9814 136.07 26.2678 136.07 26.5541V28.6041C136.07 28.8697 136.132 29.1768 136.256 29.5212C136.379 29.8698 136.553 30.2267 136.767 30.5918H134.153C134.05 30.43 133.972 30.2598 133.91 30.0814C133.848 29.903 133.803 29.7328 133.77 29.5627C133.737 29.3925 133.712 29.2307 133.704 29.0813C133.696 28.9319 133.687 28.7991 133.687 28.6829V26.5209C133.687 26.3093 133.65 26.0976 133.58 25.8902C133.51 25.6785 133.395 25.4918 133.234 25.3258C133.073 25.1598 132.867 25.0229 132.616 24.9191C132.364 24.8154 132.055 24.7614 131.688 24.7614H128.081V30.6001H125.69V16.3665H131.692C132.422 16.3665 133.069 16.4909 133.638 16.7358C134.207 16.9806 134.685 17.3002 135.073 17.6902C135.46 18.0803 135.757 18.5285 135.959 19.0265C136.161 19.5203 136.264 20.0265 136.264 20.5328ZM128.081 22.7405H131.688C131.977 22.7405 132.253 22.6865 132.513 22.5828C132.772 22.4791 133.003 22.3297 133.201 22.1429C133.399 21.9562 133.556 21.7279 133.671 21.4624C133.786 21.1968 133.844 20.9063 133.844 20.5868C133.844 20.2755 133.791 19.985 133.683 19.7153C133.576 19.4456 133.424 19.2173 133.234 19.0223C133.04 18.8273 132.814 18.6737 132.55 18.5617C132.286 18.4496 131.997 18.3915 131.688 18.3915H128.081V22.7405Z" fill="white"/>
<path d="M144.315 16.3625L148.268 27.5171L152.304 16.3625H155V30.5962H152.609V21.2095L149.357 30.5962H147.328L144.014 21.168V30.5962H141.611V16.3625H144.315Z" fill="white"/>
<path fill-rule="evenodd" clip-rule="evenodd" d="M6.2742 28.9695C9.74109 28.9695 12.5484 26.1352 12.5484 22.6411C12.5484 19.147 9.73697 16.3127 6.2742 16.3127C2.81144 16.3127 0 19.1428 0 22.6411C0 26.1393 2.81144 28.9695 6.2742 28.9695ZM27.933 38.8086C27.8588 42.2404 25.0803 45 21.6588 45C18.1919 45 15.3846 42.1657 15.3846 38.6716C15.3846 35.1775 18.196 32.3432 21.6588 32.3432C21.667 32.3432 21.6753 32.3432 21.6835 32.3432C21.7206 32.3432 21.7577 32.3432 21.7948 32.3432C27.125 32.3432 31.4576 28.0316 31.5524 22.6826C31.5524 22.6701 31.5524 22.6577 31.5524 22.6411C31.5524 22.6328 31.5524 22.6245 31.5524 22.6162C31.5524 22.5788 31.5524 22.5373 31.5524 22.5C31.5524 17.0638 27.1827 12.6568 21.7907 12.6568C21.733 12.6568 21.6794 12.6568 21.6217 12.6568C18.1672 12.6402 15.3722 9.81418 15.3722 6.32838C15.3805 2.83429 18.1919 0 21.6588 0C25.1174 0 27.9206 2.81769 27.933 6.29934C27.933 6.35328 27.933 6.41138 27.933 6.46948C27.933 11.9057 32.3027 16.3127 37.6947 16.3127C37.7318 16.3127 37.7689 16.3127 37.806 16.3127C37.8142 16.3127 37.8266 16.3127 37.8348 16.3127C41.3017 16.3127 44.109 19.147 44.109 22.6411C44.109 26.1269 41.3141 28.9529 37.8596 28.9695C37.806 28.9695 37.7483 28.9695 37.6906 28.9695C32.3027 28.9653 27.933 33.3724 27.933 38.8086Z" fill="white"/>
</svg>
