<svg width="34" height="26" viewBox="0 0 34 26" fill="none" xmlns="http://www.w3.org/2000/svg">
<path d="M17 3.51482C11.5989 3.51482 6.69319 5.66222 3.07948 9.14815C1.25319 10.92 -1.29195 8.44519 0.767477 6.50963C5.02233 2.5037 10.7149 0 17 0C23.2852 0 28.9778 2.5037 33.2326 6.51926C35.2823 8.45481 32.7372 10.9296 30.9206 9.15778C27.3069 5.66222 22.4012 3.51482 17 3.51482Z" fill="#1C1065"/>
<path d="M17.0001 10.1015C13.4252 10.1015 10.1807 11.4882 7.7521 13.7511C5.92582 15.5904 3.35153 13.2215 5.3041 11.257C8.3641 8.35852 12.4732 6.58667 16.9904 6.58667C21.5075 6.58667 25.6264 8.35852 28.6767 11.257C30.6292 13.2311 28.055 15.6 26.2287 13.7511C23.8195 11.4882 20.575 10.1015 17.0001 10.1015Z" fill="#1C1065"/>
<path d="M16.9999 17.1311C15.2902 17.1311 13.7262 17.7859 12.5605 18.8548C10.6759 20.7615 8.16963 17.9497 10.1999 16.2645C11.9971 14.6178 14.3868 13.6067 17.0096 13.6067C19.6325 13.6067 22.0222 14.6082 23.8193 16.2645C25.8496 17.9497 23.3433 20.7615 21.4588 18.8548C20.2736 17.7859 18.7096 17.1311 16.9999 17.1311Z" fill="#1C1065"/>
<path fill-rule="evenodd" clip-rule="evenodd" d="M17.0001 20.7229C18.4475 20.7229 19.6132 21.9073 19.6132 23.3614C19.6132 24.8155 18.4378 25.9999 17.0001 25.9999C15.5624 25.9999 14.387 24.8155 14.387 23.3614C14.387 21.9073 15.5527 20.7229 17.0001 20.7229Z" fill="#1C1065"/>
<path d="M21.6189 20.761L32.3062 10" stroke="#F8F8F8" stroke-width="2" stroke-miterlimit="10"/>
<path d="M32.3062 20.761L21.6189 10" stroke="#F8F8F8" stroke-width="2" stroke-miterlimit="10"/>
</svg>
