<svg width="34" height="26" viewBox="0 0 34 26" fill="none" xmlns="http://www.w3.org/2000/svg">
<path d="M17 3.51482C11.5989 3.51482 6.69319 5.66222 3.07948 9.14815C1.25319 10.92 -1.29195 8.44519 0.767477 6.50963C5.02233 2.5037 10.7149 0 17 0C23.2852 0 28.9778 2.5037 33.2326 6.51926C35.2823 8.45481 32.7372 10.9296 30.9206 9.15778C27.3069 5.66222 22.4012 3.51482 17 3.51482Z" fill="#FFFF"/>
<path d="M17 10.1015C13.4251 10.1015 10.1806 11.4882 7.75198 13.7511C5.92569 15.5904 3.35141 13.2215 5.30398 11.257C8.36398 8.35852 12.4731 6.58667 16.9903 6.58667C21.5074 6.58667 25.6263 8.35852 28.6766 11.257C30.6291 13.2311 28.0548 15.6 26.2286 13.7511C23.8194 11.4882 20.5748 10.1015 17 10.1015Z" fill="#FFFF"/>
<path d="M17 17.1311C15.2903 17.1311 13.7263 17.7859 12.5606 18.8548C10.676 20.7615 8.16969 17.9497 10.2 16.2645C11.9971 14.6178 14.3868 13.6067 17.0097 13.6067C19.6326 13.6067 22.0223 14.6082 23.8194 16.2645C25.8497 17.9497 23.3434 20.7615 21.4588 18.8548C20.2737 17.7859 18.7097 17.1311 17 17.1311Z" fill="#FFFF"/>
<path fill-rule="evenodd" clip-rule="evenodd" d="M17 20.7229C18.4474 20.7229 19.6131 21.9073 19.6131 23.3614C19.6131 24.8155 18.4377 25.9999 17 25.9999C15.5623 25.9999 14.3868 24.8155 14.3868 23.3614C14.3868 21.9073 15.5526 20.7229 17 20.7229Z" fill="#FFFF"/>
</svg>
